  <svg
          xmlns="http://www.w3.org/2000/svg"
          viewBox="0 0 500 360"
          width="500"
          height="360"
          preserveAspectRatio="xMidYMid meet"
          style="
            width: 100%;
            height: 100%;
            transform: translate3d(0px, 0px, 0px);
            content-visibility: visible;
          "
        >
          <defs>
            <clipPath id="__lottie_element_2">
              <rect width="500" height="360" x="0" y="0"></rect>
            </clipPath>
            <clipPath id="__lottie_element_20">
              <path d="M0,0 L500,0 L500,360 L0,360z"></path>
            </clipPath>
            <linearGradient
              id="__lottie_element_30"
              spreadMethod="pad"
              gradientUnits="userSpaceOnUse"
              x1="-94"
              y1="146"
              x2="92.70700073242188"
              y2="146"
            >
              <stop offset="0%" stop-color="rgb(0,0,0)" stop-opacity="0"></stop>
              <stop
                offset="6%"
                stop-color="rgb(0,0,0)"
                stop-opacity="0.15000000596046448"
              ></stop>
              <stop
                offset="50%"
                stop-color="rgb(0,0,0)"
                stop-opacity="0.30000001192092896"
              ></stop>
              <stop
                offset="94%"
                stop-color="rgb(0,0,0)"
                stop-opacity="0.15000000596046448"
              ></stop>
              <stop
                offset="100%"
                stop-color="rgb(0,0,0)"
                stop-opacity="0"
              ></stop>
            </linearGradient>
          </defs>
          <g clip-path="url(#__lottie_element_2)">
            <g
              transform="matrix(1.1299099922180176,0,0,1,229.4757080078125,202.75)"
              opacity="1"
              style="display: block"
            >
              <g
                opacity="1"
                transform="matrix(1,0,0,1,17.547000885009766,-3.25)"
              >
                <path
                  fill="url(#__lottie_element_30)"
                  fill-opacity="1"
                  d=" M-93.16600036621094,144.20700073242188 C-93.16600036621094,144.20700073242188 -93.16600036621094,149.61000061035156 -93.16600036621094,149.61000061035156 C-93.16600036621094,149.61000061035156 93.54100036621094,149.61000061035156 93.54100036621094,149.61000061035156 C93.54100036621094,149.61000061035156 93.54100036621094,144.20700073242188 93.54100036621094,144.20700073242188 C33.933998107910156,144.20700073242188 -33.558998107910156,144.20700073242188 -93.16600036621094,144.20700073242188z"
                ></path>
              </g>
            </g>
            <g
              clip-path="url(#__lottie_element_20)"
              transform="matrix(0.9396926164627075,0.3420201539993286,-0.3420201539993286,0.9396926164627075,100.64047241210938,-125.64970397949219)"
              opacity="1"
              style="display: block"
            >
              <g
                transform="matrix(1,0,0,1,239.5,185.5)"
                opacity="0.04418475360734576"
                style="display: none"
              >
                <g opacity="1" transform="matrix(1,0,0,1,0,0)">
                  <path
                    fill="rgb(255,0,0)"
                    fill-opacity="1"
                    d=" M-201.447998046875,-7.5 C-201.468994140625,-7.5 -201.48399353027344,-7.5 -201.49200439453125,-7.5"
                  ></path>
                  <path
                    stroke-linecap="butt"
                    stroke-linejoin="miter"
                    fill-opacity="0"
                    stroke-miterlimit="4"
                    stroke="rgb(226,230,233)"
                    stroke-opacity="1"
                    stroke-width="16"
                    d=" M-201.447998046875,-7.5 C-201.468994140625,-7.5 -201.48399353027344,-7.5 -201.49200439453125,-7.5"
                  ></path>
                </g>
              </g>
              <g
                transform="matrix(1,0,0,1,259.5,182.5)"
                opacity="0.04418475360734576"
                style="display: none"
              >
                <g opacity="1" transform="matrix(1,0,0,1,0,0)">
                  <path
                    fill="rgb(255,0,0)"
                    fill-opacity="1"
                    d=" M-185.46600341796875,-73.97899627685547 C-185.47999572753906,-73.98799896240234 -185.49000549316406,-73.99400329589844 -185.4949951171875,-73.99700164794922"
                  ></path>
                  <path
                    stroke-linecap="butt"
                    stroke-linejoin="miter"
                    fill-opacity="0"
                    stroke-miterlimit="4"
                    stroke="rgb(226,230,233)"
                    stroke-opacity="1"
                    stroke-width="16"
                    d=" M-185.46600341796875,-73.97899627685547 C-185.47999572753906,-73.98799896240234 -185.49000549316406,-73.99400329589844 -185.4949951171875,-73.99700164794922"
                  ></path>
                </g>
              </g>
              <g
                transform="matrix(1,0,0,-1,259.5,99)"
                opacity="0.04418475360734576"
                style="display: none"
              >
                <g opacity="1" transform="matrix(1,0,0,1,0,0)">
                  <path
                    fill="rgb(255,0,0)"
                    fill-opacity="1"
                    d=" M-184.96600341796875,-144.97900390625 C-184.97999572753906,-144.98800659179688 -184.99000549316406,-144.99400329589844 -184.9949951171875,-144.9969940185547"
                  ></path>
                  <path
                    stroke-linecap="butt"
                    stroke-linejoin="miter"
                    fill-opacity="0"
                    stroke-miterlimit="4"
                    stroke="rgb(226,230,233)"
                    stroke-opacity="1"
                    stroke-width="16"
                    d=" M-184.96600341796875,-144.97900390625 C-184.97999572753906,-144.98800659179688 -184.99000549316406,-144.99400329589844 -184.9949951171875,-144.9969940185547"
                  ></path>
                </g>
              </g>
            </g>
            <g
              transform="matrix(1,0,0,1,250,200)"
              opacity="1"
              style="display: block"
            >
              <g opacity="1" transform="matrix(1,0,0,1,0,0)">
                <path
                  fill="rgb(56,81,123)"
                  fill-opacity="1"
                  d=" M72.12999725341797,-10.140000343322754 C72.12999725341797,-10.140000343322754 49.349998474121094,-10.140000343322754 49.349998474121094,-10.140000343322754 C49.349998474121094,-10.140000343322754 49.349998474121094,-84.61000061035156 49.349998474121094,-84.61000061035156 C49.347999572753906,-111.86499786376953 27.250999450683594,-133.95799255371094 -0.004000000189989805,-133.95599365234375 C-27.256000518798828,-133.95399475097656 -49.347999572753906,-111.86199951171875 -49.349998474121094,-84.61000061035156 C-49.349998474121094,-84.61000061035156 -49.349998474121094,-27.43000030517578 -49.349998474121094,-27.43000030517578 C-49.349998474121094,-27.43000030517578 -72.12999725341797,-27.43000030517578 -72.12999725341797,-27.43000030517578 C-72.12999725341797,-27.43000030517578 -72.12999725341797,-84.61000061035156 -72.12999725341797,-84.61000061035156 C-72.12999725341797,-124.44599914550781 -39.83599853515625,-156.74000549316406 0,-156.74000549316406 C39.83599853515625,-156.74000549316406 72.12999725341797,-124.44599914550781 72.12999725341797,-84.61000061035156 C72.12999725341797,-84.61000061035156 72.12999725341797,-10.140000343322754 72.12999725341797,-10.140000343322754z"
                ></path>
              </g>
            </g>
            <g
              transform="matrix(1,0,0,1,250,180)"
              opacity="1"
              style="display: block"
            >
              <g opacity="1" transform="matrix(1,0,0,1,0,0)">
                <path
                  fill="rgb(124,217,245)"
                  fill-opacity="1"
                  d=" M-92.5,-10.140000343322754 C-92.5,-10.140000343322754 92.5,-10.140000343322754 92.5,-10.140000343322754 C95.93000030517578,-10.140000343322754 98.70999908447266,-7.360000133514404 98.70999908447266,-3.930000066757202 C98.70999908447266,-3.930000066757202 98.70999908447266,158.2899932861328 98.70999908447266,158.2899932861328 C98.70999908447266,161.72000122070312 95.93000030517578,164.5 92.5,164.5 C92.5,164.5 -92.5,164.5 -92.5,164.5 C-95.93000030517578,164.5 -98.70999908447266,161.72000122070312 -98.70999908447266,158.2899932861328 C-98.70999908447266,158.2899932861328 -98.70999908447266,-3.930000066757202 -98.70999908447266,-3.930000066757202 C-98.70999908447266,-7.360000133514404 -95.93000030517578,-10.140000343322754 -92.5,-10.140000343322754z"
                ></path>
              </g>
            </g>
            <g
              transform="matrix(1,0,0,1,250,180)"
              opacity="1"
              style="display: block"
            >
              <g opacity="1" transform="matrix(1,0,0,1,0,0)">
                <path
                  fill="rgb(56,81,123)"
                  fill-opacity="1"
                  d=" M-63.75,69.5 C-63.75,69.5 -63.75,90.30999755859375 -63.75,90.30999755859375 C-63.75,90.30999755859375 -66.33000183105469,90.30999755859375 -66.33000183105469,90.30999755859375 C-66.33000183105469,90.30999755859375 -66.33000183105469,69.5 -66.33000183105469,69.5 C-66.33000183105469,69.5 -63.75,69.5 -63.75,69.5z"
                ></path>
              </g>
              <g opacity="1" transform="matrix(1,0,0,1,0,0)">
                <path
                  fill="rgb(56,81,123)"
                  fill-opacity="1"
                  d=" M-54.63999938964844,78.62000274658203 C-54.63999938964844,78.62000274658203 -54.63999938964844,81.20000457763672 -54.63999938964844,81.20000457763672 C-54.63999938964844,81.20000457763672 -75.44999694824219,81.20000457763672 -75.44999694824219,81.20000457763672 C-75.44999694824219,81.20000457763672 -75.44999694824219,78.62000274658203 -75.44999694824219,78.62000274658203 C-75.44999694824219,78.62000274658203 -54.63999938964844,78.62000274658203 -54.63999938964844,78.62000274658203z"
                ></path>
              </g>
              <g opacity="1" transform="matrix(1,0,0,1,0,0)">
                <path
                  fill="rgb(56,81,123)"
                  fill-opacity="1"
                  d=" M-73.31400299072266,86.35600280761719 C-73.31400299072266,86.35600280761719 -58.5989990234375,71.64099884033203 -58.5989990234375,71.64099884033203 C-58.5989990234375,71.64099884033203 -56.775001525878906,73.46600341796875 -56.775001525878906,73.46600341796875 C-56.775001525878906,73.46600341796875 -71.48999786376953,88.18000030517578 -71.48999786376953,88.18000030517578 C-71.48999786376953,88.18000030517578 -73.31400299072266,86.35600280761719 -73.31400299072266,86.35600280761719z"
                ></path>
              </g>
              <g opacity="1" transform="matrix(1,0,0,1,0,0)">
                <path
                  fill="rgb(56,81,123)"
                  fill-opacity="1"
                  d=" M-73.30400085449219,73.447998046875 C-73.30400085449219,73.447998046875 -71.4800033569336,71.6240005493164 -71.4800033569336,71.6240005493164 C-71.4800033569336,71.6240005493164 -56.76499938964844,86.33899688720703 -56.76499938964844,86.33899688720703 C-56.76499938964844,86.33899688720703 -58.5890007019043,88.16300201416016 -58.5890007019043,88.16300201416016 C-58.5890007019043,88.16300201416016 -73.30400085449219,73.447998046875 -73.30400085449219,73.447998046875z"
                ></path>
              </g>
            </g>
            <g
              transform="matrix(1,0,0,1,250,181)"
              opacity="1"
              style="display: block"
            >
              <g opacity="1" transform="matrix(1,0,0,1,0,0)">
                <path
                  fill="rgb(56,81,123)"
                  fill-opacity="1"
                  d=" M-37.72999954223633,69.5 C-37.72999954223633,69.5 -37.72999954223633,90.30999755859375 -37.72999954223633,90.30999755859375 C-37.72999954223633,90.30999755859375 -40.310001373291016,90.30999755859375 -40.310001373291016,90.30999755859375 C-40.310001373291016,90.30999755859375 -40.310001373291016,69.5 -40.310001373291016,69.5 C-40.310001373291016,69.5 -37.72999954223633,69.5 -37.72999954223633,69.5z"
                ></path>
              </g>
              <g opacity="1" transform="matrix(1,0,0,1,0,0)">
                <path
                  fill="rgb(56,81,123)"
                  fill-opacity="1"
                  d=" M-28.62000274658203,78.62000274658203 C-28.62000274658203,78.62000274658203 -28.62000274658203,81.20000457763672 -28.62000274658203,81.20000457763672 C-28.62000274658203,81.20000457763672 -49.43000030517578,81.20000457763672 -49.43000030517578,81.20000457763672 C-49.43000030517578,81.20000457763672 -49.43000030517578,78.62000274658203 -49.43000030517578,78.62000274658203 C-49.43000030517578,78.62000274658203 -28.62000274658203,78.62000274658203 -28.62000274658203,78.62000274658203z"
                ></path>
              </g>
              <g opacity="1" transform="matrix(1,0,0,1,0,0)">
                <path
                  fill="rgb(56,81,123)"
                  fill-opacity="1"
                  d=" M-47.29499816894531,86.35700225830078 C-47.29499816894531,86.35700225830078 -32.58000183105469,71.64199829101562 -32.58000183105469,71.64199829101562 C-32.58000183105469,71.64199829101562 -30.756000518798828,73.46700286865234 -30.756000518798828,73.46700286865234 C-30.756000518798828,73.46700286865234 -45.47100067138672,88.18199920654297 -45.47100067138672,88.18199920654297 C-45.47100067138672,88.18199920654297 -47.29499816894531,86.35700225830078 -47.29499816894531,86.35700225830078z"
                ></path>
              </g>
              <g opacity="1" transform="matrix(1,0,0,1,0,0)">
                <path
                  fill="rgb(56,81,123)"
                  fill-opacity="1"
                  d=" M-47.29499816894531,73.45999908447266 C-47.29499816894531,73.45999908447266 -45.47100067138672,71.63500213623047 -45.47100067138672,71.63500213623047 C-45.47100067138672,71.63500213623047 -30.756000518798828,86.3499984741211 -30.756000518798828,86.3499984741211 C-30.756000518798828,86.3499984741211 -32.58000183105469,88.17400360107422 -32.58000183105469,88.17400360107422 C-32.58000183105469,88.17400360107422 -47.29499816894531,73.45999908447266 -47.29499816894531,73.45999908447266z"
                ></path>
              </g>
            </g>
            <g
              transform="matrix(1,0,0,1,250,180)"
              opacity="1"
              style="display: block"
            >
              <g opacity="1" transform="matrix(1,0,0,1,0,0)">
                <path
                  fill="rgb(56,81,123)"
                  fill-opacity="1"
                  d=" M-11.720000267028809,69.5 C-11.720000267028809,69.5 -11.720000267028809,90.30999755859375 -11.720000267028809,90.30999755859375 C-11.720000267028809,90.30999755859375 -14.300000190734863,90.30999755859375 -14.300000190734863,90.30999755859375 C-14.300000190734863,90.30999755859375 -14.300000190734863,69.5 -14.300000190734863,69.5 C-14.300000190734863,69.5 -11.720000267028809,69.5 -11.720000267028809,69.5z"
                ></path>
              </g>
              <g opacity="1" transform="matrix(1,0,0,1,0,0)">
                <path
                  fill="rgb(56,81,123)"
                  fill-opacity="1"
                  d=" M-2.6000003814697266,78.62000274658203 C-2.6000003814697266,78.62000274658203 -2.6000003814697266,81.20000457763672 -2.6000003814697266,81.20000457763672 C-2.6000003814697266,81.20000457763672 -23.40999984741211,81.20000457763672 -23.40999984741211,81.20000457763672 C-23.40999984741211,81.20000457763672 -23.40999984741211,78.62000274658203 -23.40999984741211,78.62000274658203 C-23.40999984741211,78.62000274658203 -2.6000003814697266,78.62000274658203 -2.6000003814697266,78.62000274658203z"
                ></path>
              </g>
              <g opacity="1" transform="matrix(1,0,0,1,0,0)">
                <path
                  fill="rgb(56,81,123)"
                  fill-opacity="1"
                  d=" M-21.275999069213867,86.3479995727539 C-21.275999069213867,86.3479995727539 -6.560999870300293,71.63300323486328 -6.560999870300293,71.63300323486328 C-6.560999870300293,71.63300323486328 -4.736999988555908,73.45800018310547 -4.736999988555908,73.45800018310547 C-4.736999988555908,73.45800018310547 -19.45199966430664,88.1729965209961 -19.45199966430664,88.1729965209961 C-19.45199966430664,88.1729965209961 -21.275999069213867,86.3479995727539 -21.275999069213867,86.3479995727539z"
                ></path>
              </g>
              <g opacity="1" transform="matrix(1,0,0,1,0,0)">
                <path
                  fill="rgb(56,81,123)"
                  fill-opacity="1"
                  d=" M-21.283000946044922,73.45800018310547 C-21.283000946044922,73.45800018310547 -19.458999633789062,71.63300323486328 -19.458999633789062,71.63300323486328 C-19.458999633789062,71.63300323486328 -4.74399995803833,86.3479995727539 -4.74399995803833,86.3479995727539 C-4.74399995803833,86.3479995727539 -6.567999839782715,88.1729965209961 -6.567999839782715,88.1729965209961 C-6.567999839782715,88.1729965209961 -21.283000946044922,73.45800018310547 -21.283000946044922,73.45800018310547z"
                ></path>
              </g>
            </g>
            <g
              transform="matrix(1,0,0,1,250,180)"
              opacity="1"
              style="display: block"
            >
              <g opacity="1" transform="matrix(1,0,0,1,0,0)">
                <path
                  fill="rgb(56,81,123)"
                  fill-opacity="1"
                  d=" M14.300000190734863,69.5 C14.300000190734863,69.5 14.300000190734863,90.30999755859375 14.300000190734863,90.30999755859375 C14.300000190734863,90.30999755859375 11.720000267028809,90.30999755859375 11.720000267028809,90.30999755859375 C11.720000267028809,90.30999755859375 11.720000267028809,69.5 11.720000267028809,69.5 C11.720000267028809,69.5 14.300000190734863,69.5 14.300000190734863,69.5z"
                ></path>
              </g>
              <g opacity="1" transform="matrix(1,0,0,1,0,0)">
                <path
                  fill="rgb(56,81,123)"
                  fill-opacity="1"
                  d=" M23.40999984741211,78.62000274658203 C23.40999984741211,78.62000274658203 23.40999984741211,81.20000457763672 23.40999984741211,81.20000457763672 C23.40999984741211,81.20000457763672 2.6000003814697266,81.20000457763672 2.6000003814697266,81.20000457763672 C2.6000003814697266,81.20000457763672 2.6000003814697266,78.62000274658203 2.6000003814697266,78.62000274658203 C2.6000003814697266,78.62000274658203 23.40999984741211,78.62000274658203 23.40999984741211,78.62000274658203z"
                ></path>
              </g>
              <g opacity="1" transform="matrix(1,0,0,1,0,0)">
                <path
                  fill="rgb(56,81,123)"
                  fill-opacity="1"
                  d=" M4.736000061035156,86.35600280761719 C4.736000061035156,86.35600280761719 19.450000762939453,71.64199829101562 19.450000762939453,71.64199829101562 C19.450000762939453,71.64199829101562 21.274999618530273,73.46600341796875 21.274999618530273,73.46600341796875 C21.274999618530273,73.46600341796875 6.559999942779541,88.18099975585938 6.559999942779541,88.18099975585938 C6.559999942779541,88.18099975585938 4.736000061035156,86.35600280761719 4.736000061035156,86.35600280761719z"
                ></path>
              </g>
              <g opacity="1" transform="matrix(1,0,0,1,0,0)">
                <path
                  fill="rgb(56,81,123)"
                  fill-opacity="1"
                  d=" M4.736000061035156,73.43900299072266 C4.736000061035156,73.43900299072266 6.559999942779541,71.61399841308594 6.559999942779541,71.61399841308594 C6.559999942779541,71.61399841308594 21.274999618530273,86.3290023803711 21.274999618530273,86.3290023803711 C21.274999618530273,86.3290023803711 19.450000762939453,88.15399932861328 19.450000762939453,88.15399932861328 C19.450000762939453,88.15399932861328 4.736000061035156,73.43900299072266 4.736000061035156,73.43900299072266z"
                ></path>
              </g>
            </g>
            <g
              transform="matrix(1,0,0,1,250,180)"
              opacity="1"
              style="display: block"
            >
              <g opacity="1" transform="matrix(1,0,0,1,0,0)">
                <path
                  fill="rgb(56,81,123)"
                  fill-opacity="1"
                  d=" M40.310001373291016,69.5 C40.310001373291016,69.5 40.310001373291016,90.30999755859375 40.310001373291016,90.30999755859375 C40.310001373291016,90.30999755859375 37.72999954223633,90.30999755859375 37.72999954223633,90.30999755859375 C37.72999954223633,90.30999755859375 37.72999954223633,69.5 37.72999954223633,69.5 C37.72999954223633,69.5 40.310001373291016,69.5 40.310001373291016,69.5z"
                ></path>
              </g>
              <g opacity="1" transform="matrix(1,0,0,1,0,0)">
                <path
                  fill="rgb(56,81,123)"
                  fill-opacity="1"
                  d=" M49.43000030517578,78.62000274658203 C49.43000030517578,78.62000274658203 49.43000030517578,81.20000457763672 49.43000030517578,81.20000457763672 C49.43000030517578,81.20000457763672 28.62000274658203,81.20000457763672 28.62000274658203,81.20000457763672 C28.62000274658203,81.20000457763672 28.62000274658203,78.62000274658203 28.62000274658203,78.62000274658203 C28.62000274658203,78.62000274658203 49.43000030517578,78.62000274658203 49.43000030517578,78.62000274658203z"
                ></path>
              </g>
              <g opacity="1" transform="matrix(1,0,0,1,0,0)">
                <path
                  fill="rgb(56,81,123)"
                  fill-opacity="1"
                  d=" M30.7549991607666,86.35800170898438 C30.7549991607666,86.35800170898438 45.46900177001953,71.64299774169922 45.46900177001953,71.64299774169922 C45.46900177001953,71.64299774169922 47.29399871826172,73.46700286865234 47.29399871826172,73.46700286865234 C47.29399871826172,73.46700286865234 32.57899856567383,88.18199920654297 32.57899856567383,88.18199920654297 C32.57899856567383,88.18199920654297 30.7549991607666,86.35800170898438 30.7549991607666,86.35800170898438z"
                ></path>
              </g>
              <g opacity="1" transform="matrix(1,0,0,1,0,0)">
                <path
                  fill="rgb(56,81,123)"
                  fill-opacity="1"
                  d=" M30.746999740600586,73.4469985961914 C30.746999740600586,73.4469985961914 32.571998596191406,71.62300109863281 32.571998596191406,71.62300109863281 C32.571998596191406,71.62300109863281 47.2869987487793,86.33799743652344 47.2869987487793,86.33799743652344 C47.2869987487793,86.33799743652344 45.46200180053711,88.16200256347656 45.46200180053711,88.16200256347656 C45.46200180053711,88.16200256347656 30.746999740600586,73.4469985961914 30.746999740600586,73.4469985961914z"
                ></path>
              </g>
            </g>
            <g
              transform="matrix(1,0,0,1,250,180)"
              opacity="1"
              style="display: block"
            >
              <g opacity="1" transform="matrix(1,0,0,1,0,0)">
                <path
                  fill="rgb(56,81,123)"
                  fill-opacity="1"
                  d=" M66.33000183105469,69.5 C66.33000183105469,69.5 66.33000183105469,90.30999755859375 66.33000183105469,90.30999755859375 C66.33000183105469,90.30999755859375 63.75,90.30999755859375 63.75,90.30999755859375 C63.75,90.30999755859375 63.75,69.5 63.75,69.5 C63.75,69.5 66.33000183105469,69.5 66.33000183105469,69.5z"
                ></path>
              </g>
              <g opacity="1" transform="matrix(1,0,0,1,0,0)">
                <path
                  fill="rgb(56,81,123)"
                  fill-opacity="1"
                  d=" M75.44000244140625,78.62000274658203 C75.44000244140625,78.62000274658203 75.44000244140625,81.20000457763672 75.44000244140625,81.20000457763672 C75.44000244140625,81.20000457763672 54.6300048828125,81.20000457763672 54.6300048828125,81.20000457763672 C54.6300048828125,81.20000457763672 54.6300048828125,78.62000274658203 54.6300048828125,78.62000274658203 C54.6300048828125,78.62000274658203 75.44000244140625,78.62000274658203 75.44000244140625,78.62000274658203z"
                ></path>
              </g>
              <g opacity="1" transform="matrix(1,0,0,1,0,0)">
                <path
                  fill="rgb(56,81,123)"
                  fill-opacity="1"
                  d=" M56.76599884033203,86.35600280761719 C56.76599884033203,86.35600280761719 71.48100280761719,71.64099884033203 71.48100280761719,71.64099884033203 C71.48100280761719,71.64099884033203 73.30599975585938,73.46499633789062 73.30599975585938,73.46499633789062 C73.30599975585938,73.46499633789062 58.590999603271484,88.18000030517578 58.590999603271484,88.18000030517578 C58.590999603271484,88.18000030517578 56.76599884033203,86.35600280761719 56.76599884033203,86.35600280761719z"
                ></path>
              </g>
              <g opacity="1" transform="matrix(1,0,0,1,0,0)">
                <path
                  fill="rgb(56,81,123)"
                  fill-opacity="1"
                  d=" M56.76599884033203,73.43800354003906 C56.76599884033203,73.43800354003906 58.590999603271484,71.61399841308594 58.590999603271484,71.61399841308594 C58.590999603271484,71.61399841308594 73.30599975585938,86.3290023803711 73.30599975585938,86.3290023803711 C73.30599975585938,86.3290023803711 71.48100280761719,88.15299987792969 71.48100280761719,88.15299987792969 C71.48100280761719,88.15299987792969 56.76599884033203,73.43800354003906 56.76599884033203,73.43800354003906z"
                ></path>
              </g>
            </g>
          </g>
        </svg>