<svg width="501.96034" height="374.36008" xmlns="http://www.w3.org/2000/svg" data-name="Layer 1">
 <g>
  <title>Layer 1</title>
  <path d="m446.53893,1205.5088l23.64387,0a0,0 0 0 1 0,0l0,14.88687a0,0 0 0 1 0,0l-38.53072,0a0,0 0 0 1 0,0l0,0a14.88686,14.88686 0 0 1 14.88685,-14.88687z" fill="#e1e1e1" id="svg_6" transform="rotate(-41.6545 450.917 1212.95)"/>
  <path stroke="null" d="m493.99999,0.00004l-487,0a7.00778,7.00778 0 0 0 -7,7l0,360a7.00778,7.00778 0 0 0 7,7l487,0a7.00778,7.00778 0 0 0 7,-7l0,-360a7.00778,7.00778 0 0 0 -7,-7zm5,367a5.002,5.002 0 0 1 -5,5l-487,0a5.002,5.002 0 0 1 -5,-5l0,-360a5.002,5.002 0 0 1 5,-5l487,0a5.002,5.002 0 0 1 5,5l0,360z" fill="#e1e1e1" id="svg_15"/>
  <rect x="1" y="28.03998" width="499" height="2" fill="#e1e1e1" id="svg_16"/>
  <circle cx="18" cy="15" r="6" fill="#e1e1e1" id="svg_17"/>
  <circle cx="35.25" cy="15" r="6" fill="#e1e1e1" id="svg_18"/>
  <circle cx="52.5" cy="15" r="6" fill="#e1e1e1" id="svg_19"/>
  <path d="m301.82283,311.30477a1,1 0 0 1 -1,-1l0,-41a1,1 0 0 1 2,0l0,41a1.00005,1.00005 0 0 1 -1,1z" fill="#e1e1e1" id="svg_20"/>
  <path d="m301.45198,253.30477a0.99478,0.99478 0 0 1 -0.50244,-0.13574l-56.81519,-33.104a1.00019,1.00019 0 0 1 1.00684,-1.72852l56.81518,33.104a1.00012,1.00012 0 0 1 -0.50439,1.86425l0,0.00001z" fill="#e1e1e1" id="svg_21"/>
  <path d="m187.8238,253.30477a1.00012,1.00012 0 0 1 -0.50439,-1.86425l56.81494,-33.104a1.00019,1.00019 0 0 1 1.00681,1.72852l-56.815,33.104a0.9994,0.9994 0 0 1 -0.50236,0.13573z" fill="#e1e1e1" id="svg_22"/>
  <path d="m359.45198,303.30477a0.99478,0.99478 0 0 1 -0.50244,-0.13574l-56.81519,-33.104a1.00019,1.00019 0 0 1 1.00684,-1.72852l56.81518,33.104a1.00012,1.00012 0 0 1 -0.50439,1.86425l0,0.00001z" fill="#e1e1e1" id="svg_23"/>
  <path d="m245.8238,303.30477a1.00012,1.00012 0 0 1 -0.50439,-1.86425l56.81494,-33.104a1.00019,1.00019 0 0 1 1.00681,1.72852l-56.815,33.104a0.99908,0.99908 0 0 1 -0.50236,0.13573z" fill="#e1e1e1" id="svg_24"/>
  <path d="m244.82283,202.30477a0.99984,0.99984 0 0 1 -1,-0.99755l-0.09253,-36.38718a0.99989,0.99989 0 0 1 0.99756,-1.00244l0.00244,0a0.99985,0.99985 0 0 1 1,0.99756l0.09253,36.3872a0.99989,0.99989 0 0 1 -0.99756,1.00244l-0.00244,-0.00003z" fill="#e1e1e1" id="svg_25"/>
  <path d="m256.75642,221.22079l-26.052,0a4.50508,4.50508 0 0 1 -4.5,-4.5l0,-13.38135a4.50508,4.50508 0 0 1 4.5,-4.5l26.052,0a4.50508,4.50508 0 0 1 4.5,4.5l0,13.38135a4.50508,4.50508 0 0 1 -4.5,4.5z" fill="#ffffff" id="svg_26"/>
  <path d="m213.63777,153.20077l-55.43347,0a1,1 0 0 1 0,-2l55.43347,0a1,1 0 0 1 0,2z" fill="#e1e1e1" id="svg_27"/>
  <path d="m243.7303,138.91757a1.00005,1.00005 0 0 1 -1,-1l0,-34.6128a1,1 0 0 1 2,0l0,34.6128a1.00006,1.00006 0 0 1 -1,1z" fill="#e1e1e1" id="svg_28"/>
  <path d="m136.63691,153.20077a0.99564,0.99564 0 0 1 -0.50891,-0.13965l-53.81506,-31.896a1.0001,1.0001 0 0 1 1.01977,-1.72071l53.81507,31.896a1.00009,1.00009 0 0 1 -0.51087,1.86035l0,0.00001z" fill="#e1e1e1" id="svg_29"/>
  <path d="m82.8238,185.09677a1.00009,1.00009 0 0 1 -0.51086,-1.86036l53.81506,-31.896a1.00009,1.00009 0 0 1 1.01978,1.7207l-53.81507,31.896a0.99573,0.99573 0 0 1 -0.50891,0.13966z" fill="#e1e1e1" id="svg_30"/>
  <path d="m154.2043,169.33065l-13.38147,0a4.505,4.505 0 0 1 -4.5,-4.5l0,-26.05175a4.505,4.505 0 0 1 4.5,-4.5l13.38147,0a4.505,4.505 0 0 1 4.5,4.5l0,26.05175a4.505,4.505 0 0 1 -4.5,4.5z" fill="#ffffff" id="svg_31"/>
  <path d="m256.75642,105.99569l-26.052,0a4.50508,4.50508 0 0 1 -4.5,-4.5l0,-13.38183a4.50508,4.50508 0 0 1 4.5,-4.5l26.052,0a4.50508,4.50508 0 0 1 4.5,4.5l0,13.38183a4.50508,4.50508 0 0 1 -4.5,4.5z" fill="#ffffff" id="svg_32"/>
  <path d="m79.2043,138.33065l-13.38147,0a4.505,4.505 0 0 1 -4.5,-4.5l0,-26.05175a4.505,4.505 0 0 1 4.5,-4.5l13.38147,0a4.505,4.505 0 0 1 4.5,4.5l0,26.05175a4.505,4.505 0 0 1 -4.5,4.5z" fill="#ffffff" id="svg_33"/>
  <path d="m330.25642,153.20077l-55.43359,0a1,1 0 0 1 0,-2l55.43359,0a1,1 0 0 1 0,2z" fill="#e1e1e1" id="svg_35"/>
  <path d="m350.8238,153.20077a1,1 0 0 1 -0.51074,-1.86035l53.81494,-31.896a1,1 0 1 1 1.01953,1.72071l-53.81494,31.896a0.99522,0.99522 0 0 1 -0.50879,0.13964z" fill="#e1e1e1" id="svg_36"/>
  <path d="m405.63679,185.09677a0.99531,0.99531 0 0 1 -0.50879,-0.13965l-53.81494,-31.896a1,1 0 1 1 1.01953,-1.7207l53.81494,31.896a1,1 0 0 1 -0.51074,1.86036l0,-0.00001z" fill="#e1e1e1" id="svg_37"/>
  <path d="m346.63777,169.33065l-13.38135,0a4.50508,4.50508 0 0 1 -4.5,-4.5l0,-26.05175a4.50508,4.50508 0 0 1 4.5,-4.5l13.38135,0a4.50508,4.50508 0 0 1 4.5,4.5l0,26.05175a4.50508,4.50508 0 0 1 -4.5,4.5z" fill="#ffffff" id="svg_38"/>
  <path d="m421.63777,138.33065l-13.38135,0a4.50508,4.50508 0 0 1 -4.5,-4.5l0,-26.05175a4.50508,4.50508 0 0 1 4.5,-4.5l13.38135,0a4.50508,4.50508 0 0 1 4.5,4.5l0,26.05175a4.50508,4.50508 0 0 1 -4.5,4.5z" fill="#ffffff" id="svg_39"/>
  <path d="m421.63777,201.33065l-13.38135,0a4.50508,4.50508 0 0 1 -4.5,-4.5l0,-26.05175a4.50508,4.50508 0 0 1 4.5,-4.5l13.38135,0a4.50508,4.50508 0 0 1 4.5,4.5l0,26.05175a4.50508,4.50508 0 0 1 -4.5,4.5z" fill="#ffffff" id="svg_40"/>
  <path d="m198.7563,272.22079l-26.052,0a4.505,4.505 0 0 1 -4.5,-4.5l0,-13.38135a4.505,4.505 0 0 1 4.5,-4.5l26.052,0a4.505,4.505 0 0 1 4.5,4.5l0,13.38135a4.505,4.505 0 0 1 -4.5,4.5z" fill="#ffffff" id="svg_41"/>
  <path d="m314.57136,272.22079l-26.052,0a4.50508,4.50508 0 0 1 -4.5,-4.5l0,-13.38135a4.50508,4.50508 0 0 1 4.5,-4.5l26.052,0a4.50508,4.50508 0 0 1 4.5,4.5l0,13.38135a4.50508,4.50508 0 0 1 -4.5,4.5z" fill="#ffffff" id="svg_42"/>
  <path d="m261.57136,321.22079l-26.052,0a4.50508,4.50508 0 0 1 -4.5,-4.5l0,-13.38135a4.50508,4.50508 0 0 1 4.5,-4.5l26.052,0a4.50508,4.50508 0 0 1 4.5,4.5l0,13.38135a4.50508,4.50508 0 0 1 -4.5,4.5z" fill="#ffffff" id="svg_43"/>
  <path d="m372.57136,321.22079l-26.052,0a4.50508,4.50508 0 0 1 -4.5,-4.5l0,-13.38135a4.50508,4.50508 0 0 1 4.5,-4.5l26.052,0a4.50508,4.50508 0 0 1 4.5,4.5l0,13.38135a4.50508,4.50508 0 0 1 -4.5,4.5z" fill="#ffffff" id="svg_44"/>
  <path d="m314.57136,321.22079l-26.052,0a4.50508,4.50508 0 0 1 -4.5,-4.5l0,-13.38135a4.50508,4.50508 0 0 1 4.5,-4.5l26.052,0a4.50508,4.50508 0 0 1 4.5,4.5l0,13.38135a4.50508,4.50508 0 0 1 -4.5,4.5z" fill="#ffffff" id="svg_45"/>
  <path d="m275.39949,169.59677l-63.33833,0a4.50508,4.50508 0 0 1 -4.5,-4.5l0,-25.792a4.50508,4.50508 0 0 1 4.5,-4.5l63.33838,0a4.50508,4.50508 0 0 1 4.5,4.5l0,25.792a4.50508,4.50508 0 0 1 -4.50005,4.5z" fill="#ffffff" id="svg_46"/>
  <path d="m77.2043,200.33065l-13.38147,0a4.505,4.505 0 0 1 -4.5,-4.5l0,-26.05175a4.505,4.505 0 0 1 4.5,-4.5l13.38147,0a4.505,4.505 0 0 1 4.5,4.5l0,26.05175a4.505,4.505 0 0 1 -4.5,4.5z" fill="#ffffff" id="svg_48"/>
 </g>

</svg>